<svg width="266" height="48" viewBox="0 0 266 48" fill="none" xmlns="http://www.w3.org/2000/svg">
<path d="M92.9923 30.3327C92.0115 31.1651 90.8043 31.6948 89.4461 31.6948C87.4844 31.7705 86.1263 31.5435 85.3718 29.8786C84.24 27.5326 84.8436 26.0948 84.9191 25.8678C85.8245 24.0515 92.766 23.5975 93.4451 25.0353C93.8978 25.7921 94.0487 29.2732 92.9923 30.3327ZM76.7704 29.8786C76.0159 31.5435 74.6577 31.7705 72.696 31.6948C71.4133 31.6948 70.1307 31.2408 69.1498 30.3327C68.1689 29.1975 68.2444 25.7921 68.6217 25.0353C69.3762 23.5975 76.2422 24.0515 77.1476 25.8678C77.2985 26.0948 77.9021 27.5326 76.7704 29.8786ZM96.6895 22.4623L86.7299 17.0136L86.4281 16.7866C85.8245 16.5596 85.2209 16.5596 84.6927 16.7866L84.3155 17.0136L82.731 17.9217V17.9974L83.3346 18.3001L87.1072 20.3434L89.2952 21.5542C87.1072 21.7056 84.9191 22.3866 83.0328 23.4461C82.5047 23.7488 81.8256 23.9758 81.222 23.9758H81.0711C80.392 23.9758 79.7884 23.8245 79.2603 23.4461C77.2985 22.3866 75.1859 21.7056 72.9978 21.5542L81.1465 17.0136L84.0891 15.3487C84.8436 14.819 85.749 14.6677 86.6545 14.8947C87.409 15.1974 88.088 15.5001 88.7671 15.9542C89.0689 16.1055 89.3707 16.1812 89.6725 16.1055C89.9743 16.0298 90.2007 15.8785 90.427 15.6514C90.6534 15.4244 90.7288 15.046 90.7288 14.7433C90.7288 14.2893 90.5025 13.8352 90.0498 13.5325C89.0689 12.8514 87.9371 12.3974 86.7299 12.0947C84.0137 11.6406 82.2783 12.9271 80.9956 13.6839C79.4112 12.3974 77.2985 11.792 75.2613 12.0947C74.0541 12.3974 72.9978 12.8514 71.9415 13.5325C71.3379 13.9866 71.1115 14.819 71.5642 15.4244C71.5642 15.5001 71.6397 15.5001 71.6397 15.5758C71.9415 15.8785 72.3188 16.0298 72.696 16.0298C72.9224 16.0298 73.1487 15.9542 73.3751 15.8028C74.0541 15.4244 74.7332 15.046 75.4877 14.7433C76.3931 14.5163 77.374 14.7433 78.1285 15.2731L65.5282 22.4623C65.2264 22.6137 65 22.992 65 23.3704V25.111C65 25.4894 65.2264 25.8678 65.5282 26.0191C65.83 26.1705 65.9054 26.3218 65.9054 26.9272C65.9054 28.0624 65.1509 34.1165 73.0733 34.1165C80.1657 34.1165 79.3357 27.1542 81.0711 27.1542C82.8065 27.1542 81.9765 34.1165 89.0689 34.1165C96.9913 34.1165 96.2367 28.0624 96.2367 26.9272C96.2367 26.3218 96.3122 26.1705 96.614 26.0191C96.9913 25.8678 97.2176 25.4894 97.2176 25.111V23.3704C97.2931 22.992 97.0667 22.6137 96.6895 22.4623Z" fill="#0062E3"></path>
<path d="M137.282 24.9272C137.358 24.2462 137.66 23.6407 138.188 23.1867C138.942 22.5813 139.848 22.2786 140.829 22.3542C141.734 22.2786 142.639 22.5813 143.318 23.1867C143.847 23.6407 144.148 24.3218 144.224 25.0029V25.8354C144.224 26.5164 143.997 27.1975 143.545 27.7273C143.469 27.8029 143.394 27.9543 143.243 28.03C142.941 28.3327 142.488 28.5597 142.111 28.7111C141.658 28.8624 141.13 28.9381 140.602 28.9381C139.697 29.0138 138.791 28.7111 138.112 28.03C138.037 27.9543 137.886 27.8786 137.81 27.7273C137.358 27.1219 137.131 26.3651 137.207 25.6083C137.207 25.3813 137.207 25.1543 137.282 24.9272ZM147.166 20.084H144.677C144.601 20.084 144.526 20.1596 144.45 20.2353C144.375 20.311 144.375 20.3867 144.375 20.4623V21.6732C143.922 21.0677 143.243 20.538 142.564 20.2353C141.734 19.9326 140.904 19.7812 139.999 19.7812C138.867 19.7812 137.81 20.0083 136.83 20.538C135.924 20.9921 135.245 21.7488 134.717 22.6569C134.189 23.5651 133.962 24.6245 133.962 25.684C133.962 26.6678 134.189 27.6516 134.566 28.5597L134.717 28.7111C135.17 29.5435 135.924 30.2246 136.754 30.7543C137.131 30.9813 137.584 31.1327 138.037 31.2841C138.565 31.4354 139.093 31.5111 139.697 31.4354C140.3 31.4354 140.904 31.3597 141.508 31.2841C141.809 31.2084 142.111 31.057 142.413 30.9813C143.167 30.6786 143.847 30.1489 144.375 29.5435V31.3597C144.375 31.8895 144.224 32.4192 143.922 32.8733C143.62 33.3273 143.167 33.7057 142.639 33.9327C142.262 34.0841 141.885 34.2354 141.508 34.2354C141.206 34.2354 140.979 34.3111 140.678 34.3111C139.018 34.3111 137.961 33.857 137.433 32.8733C137.433 32.7976 137.358 32.7219 137.282 32.7219H134.642C134.491 32.7219 134.34 32.8733 134.34 33.0246V33.1003C134.642 34.2354 135.321 35.1436 136.301 35.8246C137.66 36.5814 139.169 36.8841 140.753 36.8084C141.96 36.8841 143.167 36.5814 144.299 36.1273C144.375 36.1273 144.375 36.0517 144.45 36.0517C144.978 35.8246 145.431 35.5219 145.808 35.1435C146.865 34.1598 147.468 32.7976 147.544 31.3597C147.619 30.9057 147.619 30.4516 147.619 30.0732V20.4623C147.544 20.2353 147.393 20.084 147.166 20.084ZM199.68 26.2137C199.68 27.0462 199.379 27.8786 198.775 28.4084C198.473 28.7111 198.02 29.0138 197.568 29.1651C197.115 29.3165 196.587 29.4678 196.134 29.4678C195.229 29.5435 194.248 29.1651 193.644 28.5597C192.965 27.8786 192.663 26.8948 192.739 25.911C192.663 24.9272 192.965 23.9434 193.644 23.1867C194.399 22.5056 195.304 22.2029 196.285 22.2786C197.19 22.2029 198.171 22.5813 198.775 23.1867C199.077 23.4894 199.303 23.8678 199.454 24.2462C199.605 24.7002 199.68 25.0786 199.68 25.5326V26.2137ZM202.548 15.9218H199.982C199.907 15.9218 199.831 15.9218 199.756 15.9974C199.68 16.0731 199.68 16.1488 199.68 16.2245V21.5218C198.624 20.2353 197.04 19.5542 195.38 19.6299C194.248 19.6299 193.192 19.8569 192.211 20.4623C191.305 20.9921 190.551 21.7488 190.098 22.6569C189.57 23.6407 189.344 24.7759 189.419 25.911C189.419 27.0462 189.645 28.1056 190.098 29.0894C190.551 29.9976 191.23 30.6786 192.135 31.2084C193.041 31.7381 194.022 31.9651 195.078 31.9651C196.059 31.9651 196.964 31.8138 197.794 31.4354C198.624 31.1327 199.303 30.5273 199.756 29.8462V31.2841C199.756 31.5111 199.907 31.6624 200.133 31.6624H202.623C202.849 31.6624 203 31.5111 203 31.2841V16.3001C203 16.2245 203 16.0731 202.925 16.0731C202.774 15.9974 202.698 15.9218 202.548 15.9218ZM177.422 24.6245C177.498 23.8678 177.875 23.1867 178.479 22.8083C179.158 22.2786 179.988 22.0515 180.818 22.0515C181.723 21.9759 182.553 22.2029 183.307 22.7326C183.911 23.1867 184.288 23.8678 184.213 24.6245H177.422ZM185.722 21.2948C184.364 20.2353 182.628 19.6299 180.893 19.7812C179.686 19.7812 178.479 20.0083 177.347 20.6137C176.366 21.1434 175.536 21.9002 175.008 22.884C174.48 23.8678 174.178 25.0029 174.178 26.1381C174.102 27.8029 174.706 29.3921 175.913 30.5273C177.271 31.6624 179.007 32.1922 180.818 32.1165C182.327 32.1922 183.836 31.8895 185.194 31.1327C186.175 30.5273 186.854 29.6192 187.155 28.484C187.231 28.3327 187.155 28.1813 187.005 28.1813H184.364C184.288 28.1813 184.137 28.257 184.137 28.3327C183.685 29.2408 182.628 29.7705 181.044 29.7705C180.44 29.7705 179.761 29.6192 179.158 29.3921C178.63 29.1651 178.252 28.7867 177.875 28.3327C177.573 27.8786 177.422 27.3489 177.422 26.8191H187.005C187.155 26.8191 187.231 26.7435 187.306 26.6678C187.382 26.5921 187.457 26.4408 187.457 26.3651V25.7597C187.533 24.0948 186.854 22.5056 185.722 21.2948ZM162.408 24.6245C162.483 23.8678 162.86 23.1867 163.464 22.8083C164.143 22.2786 164.973 22.0515 165.803 22.0515C166.708 21.9759 167.538 22.2029 168.293 22.7326C168.896 23.1867 169.274 23.8678 169.198 24.6245H162.408ZM170.632 21.2948C169.274 20.2353 167.538 19.6299 165.803 19.7812C164.596 19.7812 163.388 20.0083 162.257 20.6137C161.276 21.1434 160.446 21.9002 159.918 22.884C159.389 23.8678 159.088 25.0029 159.088 26.1381C159.012 27.8029 159.616 29.3921 160.823 30.5273C162.181 31.6624 163.917 32.1922 165.727 32.1165C167.236 32.1922 168.745 31.8895 170.104 31.1327C171.084 30.5273 171.763 29.6192 172.065 28.484C172.141 28.3327 172.065 28.1813 171.914 28.1813H169.274C169.198 28.1813 169.047 28.257 169.047 28.3327C168.595 29.2408 167.538 29.7705 165.954 29.7705C165.35 29.7705 164.671 29.6192 164.067 29.3921C163.539 29.1651 163.162 28.7867 162.785 28.3327C162.483 27.8786 162.332 27.3489 162.332 26.8191H171.914C172.065 26.8191 172.141 26.7435 172.216 26.6678C172.292 26.5921 172.367 26.4408 172.367 26.3651V25.7597C172.443 24.0948 171.839 22.5056 170.632 21.2948ZM157.73 19.9326C156.07 19.9326 154.561 20.6894 153.504 21.9759V20.4623C153.504 20.3867 153.504 20.311 153.429 20.2353C153.353 20.1596 153.278 20.1596 153.202 20.084H150.713C150.486 20.084 150.335 20.2353 150.335 20.4623V31.3597C150.335 31.5868 150.486 31.7381 150.713 31.7381H153.278C153.504 31.7381 153.655 31.5868 153.655 31.3597V25.6083C153.655 24.8516 154.032 24.0948 154.636 23.5651C155.391 22.9597 156.371 22.5813 157.352 22.6569H157.805C158.031 22.6569 158.258 22.5056 158.258 22.2786V20.311C158.258 20.2353 158.182 20.084 158.107 20.0083C158.031 19.9326 157.956 19.8569 157.805 19.8569H157.73V19.9326ZM122.041 24.7002C122.117 23.9434 122.494 23.2624 123.098 22.884C123.777 22.3542 124.607 22.1272 125.436 22.1272C126.342 22.0515 127.172 22.2786 127.926 22.8083C128.53 23.2624 128.832 23.9434 128.832 24.7002H122.041ZM130.341 21.2948C128.983 20.1596 127.323 19.6299 125.587 19.7056C124.38 19.7056 123.173 19.9326 122.041 20.538C121.06 21.0677 120.23 21.8245 119.702 22.8083C119.174 23.7921 118.872 24.9272 118.872 26.0624C118.797 27.7273 119.4 29.3165 120.608 30.4516C121.966 31.5868 123.701 32.1165 125.512 32.0408C127.021 32.1165 128.53 31.8138 129.888 31.057C130.869 30.4516 131.548 29.5435 131.85 28.4084C131.925 28.257 131.774 28.1056 131.699 28.1056H129.058C128.983 28.1056 128.832 28.1813 128.832 28.257C128.379 29.1651 127.323 29.6948 125.663 29.6948C125.059 29.6948 124.38 29.5435 123.777 29.3165C123.248 29.0894 122.871 28.7111 122.494 28.257C122.192 27.8029 122.041 27.2732 122.041 26.7435H131.548C131.699 26.7435 131.774 26.6678 131.85 26.5921C131.925 26.5164 132.001 26.3651 132.001 26.2894V25.7597C132.076 24.0948 131.473 22.5056 130.341 21.2948ZM113.515 26.2137C113.515 26.5921 113.44 27.0462 113.289 27.4246C113.138 27.8029 112.912 28.1813 112.61 28.484C112.308 28.7867 111.855 29.0894 111.403 29.2408C110.95 29.3921 110.422 29.5435 109.894 29.5435C108.988 29.6192 108.007 29.2408 107.404 28.6354C106.725 27.9543 106.423 26.9705 106.498 26.0624C106.423 25.0786 106.725 24.0948 107.404 23.338C108.158 22.657 109.064 22.3542 110.044 22.4299C110.95 22.3542 111.931 22.7326 112.534 23.338C112.836 23.6407 113.063 24.0191 113.213 24.3975C113.364 24.7759 113.44 25.2299 113.44 25.684L113.515 26.2137ZM116.382 15.9974H113.817C113.591 15.9974 113.44 16.1488 113.44 16.3758V21.6732C112.383 20.3867 110.724 19.7056 109.064 19.7812C107.932 19.7812 106.876 20.0083 105.895 20.6137C104.989 21.1434 104.235 21.9002 103.782 22.8083C102.801 24.8516 102.801 27.1975 103.782 29.2408C104.235 30.1489 104.914 30.83 105.819 31.3597C106.725 31.8895 107.705 32.1165 108.762 32.1165C109.743 32.1165 110.648 31.9651 111.478 31.5868C112.308 31.2841 112.987 30.6786 113.44 29.9976V31.4354C113.44 31.6624 113.591 31.8138 113.817 31.8138H116.307C116.533 31.8138 116.684 31.6624 116.684 31.4354V16.3758C116.684 16.3001 116.609 16.2245 116.609 16.1488C116.609 15.9974 116.458 15.9974 116.382 15.9974Z" fill="#353C42"></path>
</svg>