<svg height="16" viewBox="0 0 16 16" width="16" xmlns="http://www.w3.org/2000/svg"><path d="m7 9.3561077v-1.3561077h-2c-.55228475 0-1-.44771525-1-1v-6c0-.55228475.44771525-1 1-1h6c.5522847 0 1 .44771525 1 1v6c0 .55228475-.4477153 1-1 1h-2v1.35627969l.29690303.63599532c.081843.17531569.24521991.29807479.43562863.32732509l1.77702694.2729841c.315339.0484419.5319145.3447368.483735.6617931-.0182187.1198923-.0733133.2310412-.1575531.3178507l-1.3218154 1.3621362c-.1280261.1319314-.1861586.3171367-.1566447.4990571l.3069874 1.8922341c.051356.3165518-.1622379.6150268-.4770751.6666624-.1278685.0209713-.25903655-.0018902-.37242406-.0649107l-1.5353729-.8533554c-.17389074-.0966479-.38498104-.0966479-.55887177 0l-1.5353729.8533554c-.27918229.1551687-.63061196.0534032-.78494014-.2272995-.06267908-.114005-.08541682-.2458874-.06455905-.3744522l.30698742-1.8922341c.02951392-.1819204-.02861856-.3671257-.15664466-.4990571l-1.32181543-1.3621362c-.2227728-.2295683-.21827199-.5972467.01005282-.8212327.08633926-.0846985.19688612-.1400931.31612911-.1584111l1.77702691-.2729841c.19040872-.0292503.35378563-.1520094.43562863-.32732509z" fill-rule="evenodd"></path></svg>