<svg height="16" viewBox="0 0 16 16" width="16" xmlns="http://www.w3.org/2000/svg"><path d="m9.5362607 12h-3.07218745l-1.41497703 2.4508121c-.30320684.5251697-.97473867.7051061-1.49990833.4018992-.52516965-.3032068-.70510606-.9747386-.40189922-1.4999083l.78104117-1.352803h-.92832984c-1.1045695 0-2-.8954305-2-2v-7c0-1.1045695.8954305-2 2-2h10c1.1045695 0 2 .8954305 2 2v7c0 1.1045695-.8954305 2-2 2h-.9279959l.7810412 1.352803c.3032068.5251697.1232704 1.1967015-.4018992 1.4999083-.5251697.3032069-1.1967015.1232705-1.4999084-.4018992zm-5.0362607-8c-.27614237 0-.5.22385763-.5.5s.22385763.5.5.5h4c.27614237 0 .5-.22385763.5-.5s-.22385763-.5-.5-.5zm0 2c-.27614237 0-.5.22385763-.5.5s.22385763.5.5.5h7c.2761424 0 .5-.22385763.5-.5s-.2238576-.5-.5-.5zm0 2c-.27614237 0-.5.22385763-.5.5s.22385763.5.5.5h6c.2761424 0 .5-.22385763.5-.5s-.2238576-.5-.5-.5z" fill-rule="evenodd"></path></svg>