<svg height="16" viewBox="0 0 16 16" width="16" xmlns="http://www.w3.org/2000/svg"><path d="m9.55903758 8 3.11807512 3.1180752c.4305164.4305163.4305164 1.1285212 0 1.5590375-.4305163.4305164-1.1285212.4305164-1.5590375 0l-3.1180752-3.11807512-3.11807516 3.11807512c-.43051634.4305164-1.12852124.4305164-1.55903758 0-.43051635-.4305163-.43051635-1.1285212 0-1.5590375l3.11807516-3.1180752-3.11807516-3.11807516c-.43051635-.43051634-.43051635-1.12852124 0-1.55903758.43051634-.43051635 1.12852124-.43051635 1.55903758 0l3.11807516 3.11807516 3.1180752-3.11807516c.4305163-.43051635 1.1285212-.43051635 1.5590375 0 .4305164.43051634.4305164 1.12852124 0 1.55903758z" fill-rule="evenodd"></path></svg>