<svg height="16" viewBox="0 0 16 16" width="16" xmlns="http://www.w3.org/2000/svg"><path d="m8.99000953 2.33892975c-.31091032.30996546-.53748732.6991553-.65173066 1.13076785l-.09625573.36365511-.44461172.25665445c-.9373002-.19058726-1.9322015-.04329802-2.79715362.45600013-1.91348543 1.1045695-2.56909396 3.55093112-1.46434263 5.46410161 1.10475133 1.9131705 3.55151566 2.5686711 5.46500109 1.4641016.86306399-.4982082 1.48732004-1.2837278 1.79162204-2.18826638l.4505644-.26009066.3604202.09698141c.4249615.11434808.868419.11355474 1.2865324.00348362-.5269096 2.77531441-2.96463227 4.87368151-5.89227362 4.87368151-3.31248335 0-5.99778168-2.6862915-5.99778168-6s2.68529833-6 5.99778168-6c.69838435 0 1.3688897.11940836 1.99222785.33892975zm.02103133 5.66942864c-.00080584.69038447-.35929989 1.36156182-.99996274 1.73158549-.95623158.55228472-2.17896016.22453444-2.73104072-.7320508-.55208056-.95658525-.22445142-2.17976606.73178016-2.73205081.64209441-.3708505 1.40434994-.34490105 2.00303072.00179342l1.77723075-1.02646415c.11526236-.06657137.19922305-.17638177.23327347-.30509346l.2557968-.96691934c.0338173-.12783055.1168759-.23705524.2309999-.30377236l2.2217348-1.2988301c.2383285-.13932729.5444373-.05899946.6837131.17941723.0745718.12765442.0888427.28177987.0389781.42096468l-.3807285 1.06271185c-.0931307.25995168.0420266.54620938.3018822.63937446.0258404.00926449.0523999.01638371.0794089.02128544l1.1321796.20547338c.2716069.04929252.451843.30951428.4025687.58122159-.0260546.14366994-.1135862.2687679-.2396066.34243961l-2.2387229 1.30876142c-.1154.06746307-.2530033.08587734-.3820713.05112934l-.9609076-.25869799c-.1281879-.03451106-.2648339-.01659074-.3797978.04980824z"></path></svg>