<svg height="16" viewBox="0 0 16 16" width="16" xmlns="http://www.w3.org/2000/svg"><path d="m7.9860059 14c-2.63236862 0-5.15903912-1.5973491-7.58001149-4.79204738-.5413258-.71432976-.54132589-1.70157045-.00000245-2.415902 2.42097312-3.19470041 4.94764443-4.79205062 7.58001394-4.79205062 2.6307441 0 5.1644577 1.59537815 7.6011407 4.78613445.5473125.7166877.5473132 1.71100123.0000018 2.42768974l.0000188.00001438c-2.4366894 3.19077433-4.9704098 4.78616143-7.6011613 4.78616143zm.0139941-2c2.209139 0 4-1.790861 4-4s-1.790861-4-4-4-4 1.790861-4 4 1.790861 4 4 4zm.00279878-2c-1.1045695 0-2-.8954305-2-2s.8954305-2 2-2 2.00000002.8954305 2.00000002 2-.89543052 2-2.00000002 2z" fill-rule="evenodd"></path></svg>