<svg height="16" viewBox="0 0 16 16" width="16" xmlns="http://www.w3.org/2000/svg"><path d="m3.23888331 3.83572362-.94009509-1.12861684c-.39052429-.39052429-.39052429-1.02368927 0-1.41421356s1.02368927-.39052429 1.41421356 0l9.99624092 12.00083488c.3905243.3905243.3905243 1.0236892 0 1.4142135s-1.0236892.3905243-1.4142135 0l-1.2127405-1.455937c-1.0072019.4986636-2.03030999.7479954-3.0693242.7479954-2.62804535 0-5.16134648-1.595146-7.59990338-4.78543787-.54803263-.71697489-.54803273-1.71214309-.00000307-2.42912024.9282145-1.21435614 1.87015625-2.19759556 2.82582526-2.94971827zm6.47862323 7.77781248-1.36919086-1.64376125c-.11311622.01986542-.22950613.03022515-.34831568.03022515-1.1045695 0-2-.8954305-2-2 0-.24581846.04434807-.48127886.12547985-.69881685l-1.3686131-1.64306761c-.47618985.65829658-.75686675 1.46731272-.75686675 2.34188446 0 2.209139 1.790861 4 4 4 .61475213 0 1.19711366-.1386807 1.71750654-.3864639zm-3.08460507-9.4650297c.45708082-.09900427.91710183-.1485064 1.38006303-.1485064 2.6293766 0 5.1568878 1.59676246 7.5825334 4.79028737.5431094.71503995.5431093 1.70439136-.000003 2.41942915-.5392445.7099512-1.0835234 1.34098788-1.6328366 1.89310998l-2.0139807-2.46035825c.033771-.20916893.0513224-.42376892.0513224-.64246825 0-2.15866003-1.7099535-3.91793903-3.84923465-3.99721121z" fill-rule="evenodd"></path></svg>