<svg height="16" viewBox="0 0 16 16" width="16" xmlns="http://www.w3.org/2000/svg"><path d="m11.899082 12.5605371c-.5546243.4746306-1.1968531.8498492-1.899082 1.0980515v1.3414114c0 .5522847-.44771525 1-1 1h-2c-.55228475 0-1-.4477153-1-1v-1.3414114c-.70222893-.2482023-1.34445774-.6234209-1.89908204-1.0980515l-1.16309579.6715137c-.47829262.2761424-1.08988303.1122672-1.3660254-.3660254l-1-1.7320508c-.27614237-.4782926-.11226722-1.089883.3660254-1.36602541l1.16222137-.67100882c-.06570378-.35564248-.10004354-.72228118-.10004354-1.09694037s.03433976-.74129789.10004354-1.09694037l-1.16222137-.67100882c-.47829262-.27614238-.64216777-.88773278-.3660254-1.36602541l1-1.7320508c.27614237-.47829263.88773278-.64216778 1.3660254-.36602541l1.16309579.67151367c.5546243-.47463052 1.19685311-.84984913 1.89908204-1.09805144v-1.34141142c0-.55228475.44771525-1 1-1h2c.55228475 0 1 .44771525 1 1v1.34141142c.7022289.24820231 1.3444577.62342092 1.899082 1.09805144l1.1630958-.67151367c.4782926-.27614237 1.0898831-.11226722 1.3660254.36602541l1 1.7320508c.2761424.47829263.1122672 1.08988303-.3660254 1.36602541l-1.1622213.67100882c.0657037.35564248.1000435.72228118.1000435 1.09694037s-.0343398.74129789-.1000435 1.09694037l1.1622213.67100882c.4782926.27614241.6421678.88773281.3660254 1.36602541l-1 1.7320508c-.2761423.4782926-.8877328.6421678-1.3660254.3660254zm-3.899082-1.5605371c1.65685425 0 3-1.34314575 3-3s-1.34314575-3-3-3-3 1.34314575-3 3 1.34314575 3 3 3z" fill-rule="evenodd"></path></svg>