<svg version="1.1" xmlns="http://www.w3.org/2000/svg" width="24" height="24" viewBox="0 0 24 24">
<path d="M9.119 15.595v7.188c0 0.397-0.322 0.719-0.719 0.719v0h-4.298c-0 0-0.001 0-0.001 0-0.397 0-0.719-0.322-0.719-0.719 0 0 0 0 0 0v0-9.344h-2.163c-0 0-0 0-0 0-0.397 0-0.719-0.322-0.719-0.719 0-0.19 0.073-0.362 0.193-0.491l-0 0 10.79-11.503c0.132-0.14 0.318-0.228 0.525-0.228 0.191 0 0.364 0.074 0.493 0.195l-0-0 10.807 11.536c0.12 0.128 0.194 0.301 0.194 0.492 0 0.397-0.322 0.719-0.719 0.719-0.001 0-0.001 0-0.002 0h-2.16v9.339c0 0.397-0.322 0.719-0.719 0.719v0h-4.308c-0 0-0.001 0-0.001 0-0.397 0-0.719-0.322-0.72-0.719v-7.185c0-0.397-0.322-0.719-0.719-0.719v0h-4.313c-0.397 0-0.719 0.322-0.719 0.719v0z"></path>
</svg>