<svg height="16" viewBox="0 0 16 16" width="16" xmlns="http://www.w3.org/2000/svg"><path d="m10.9680458 9.36536133 4.3248481 3.36218887c.7981979.6205286.9422272 1.7706336.3216987 2.5688314-.0462984.0595545-.0962336.1161904-.14952.1695837-.7126842.7141144-1.869333.7152738-2.5834474.0025895-.0541827-.0540741-.1049129-.1115005-.1518906-.1719395l-3.36444918-4.328518c-.95968749.6513405-2.11804392 1.0319027-3.36528542 1.0319027-3.3137085 0-6-2.6862915-6-6s2.6862915-6 6-6 6 2.6862915 6 6c0 1.24727438-.3805823 2.40565902-1.0319542 3.36536133zm-4.9680458.63463867c2.209139 0 4-1.790861 4-4s-1.790861-4-4-4-4 1.790861-4 4 1.790861 4 4 4z" fill-rule="evenodd"></path></svg>