<svg height="16" viewBox="0 0 16 16" width="16" xmlns="http://www.w3.org/2000/svg"><path d="m4 0h8c1.1045695 0 2 .8954305 2 2v12c0 1.1045695-.8954305 2-2 2h-8c-1.1045695 0-2-.8954305-2-2v-12c0-1.1045695.8954305-2 2-2zm1 2c-.55228475 0-1 .44771525-1 1v2.0909091c0 .5522847.44771525 1 1 1h3c.5522847 0 1-.4477153 1-1v-2.0909091c0-.55228475-.4477153-1-1-1zm0 6c-.55228475 0-1 .44771525-1 1s.44771525 1 1 1h6c.5522847 0 1-.44771525 1-1s-.4477153-1-1-1zm0 4c-.55228475 0-1 .4477153-1 1s.44771525 1 1 1h6c.5522847 0 1-.4477153 1-1s-.4477153-1-1-1z" fill-rule="evenodd"></path></svg>