<svg height="16" viewBox="0 0 16 16" width="16" xmlns="http://www.w3.org/2000/svg"><path d="m13.3615594 1.28109038 1.3572244 1.3572244c.3747872.37478716.3747872.98243723 0 1.35722439l-1.0179183 1.0179183c-.1873936.18739359-.4912186.18739359-.6786122 0l-2.0358366-2.0358366c-.1873936-.18739358-.1873936-.49121861 0-.67861219l1.0179183-1.0179183c.3747872-.37478717.9824372-.37478717 1.3572244 0zm-3.0537549 2.37514269 2.0358366 2.0358366c.1873936.18739359.1873936.49121862 0 .6786122l-6.10750978 6.10750983c-.18739359.1873936-.49121862.1873936-.6786122 0l-2.0358366-2.0358366c-.18739358-.1873936-.18739358-.49121865 0-.67861223l6.10750979-6.1075098c.18739359-.18739358.49121859-.18739358.67861219 0zm-9.27150615 10.68071043 1.19309888-2.8905635c.10111193-.2449676.38166476-.3615856.62663229-.2604736.05843397.024119.11152633.0595464.15622674.1042468l1.69746471 1.6974647c.18739359.1873936.18739359.4912186 0 .6786122-.04470041.0447004-.09779277.0801279-.15622674.1042469l-2.89056359 1.1930988c-.24496752.101112-.52552036-.015506-.62663229-.2604735-.0483978-.1172551-.0483978-.2489037 0-.3661588z" fill-rule="evenodd"></path></svg>