<svg version="1.1" xmlns="http://www.w3.org/2000/svg" width="24" height="24" viewBox="0 0 24 24">
<path d="M22.625 22.775c0.4-0.125 0.65-0.525 0.55-0.95-0.5-2.35-1.8-3.6-3.575-4.725-0.5-0.3-1.1-0.55-1.75-0.825-1.225-0.475-2.6-1.025-2.9-1.95-0.175-0.6 0.075-1.425 0.75-2.475 2.075-3.35 2.45-6.25 1.1-8.575-1.050-1.8-2.825-2.875-4.8-2.875-1.95 0-3.75 1.075-4.8 2.875-1.35 2.325-0.975 5.225 1.125 8.575 0.675 1.050 0.925 1.875 0.725 2.475-0.3 0.925-1.675 1.475-2.875 1.95-0.675 0.275-1.3 0.525-1.775 0.825-1.775 1.125-3.075 2.375-3.575 4.725-0.1 0.425 0.15 0.825 0.55 0.95 0.1 0.025 2.85 0.825 10.625 0.825 3.875 0 6.5-0.2 8.175-0.4s2.4-0.425 2.45-0.425v0z"></path>
</svg>