<svg height="16" viewBox="0 0 16 16" width="16" xmlns="http://www.w3.org/2000/svg"><path d="m0 14v-2.1006523c1.5-.2002174 3-.2002174 3-1.8993477 0-2.00402832-1.5-2.99597168-1.5-5s.62875884-5 3.5-5c2.34194546 0 3.19197881 1.99507265 3.42579014 3.81659766.34746419-1.45890461 1.20272097-2.81659766 3.07420986-2.81659766 2.6917886 0 3.28125 2.81135559 3.28125 4.6875s-1.40625 2.81684875-1.40625 4.6875c0 1.5220362 1.283949 1.5897269 2.625 1.7565072v1.8684928c0 1.1045695-.8954305 2-2 2h-12c-1.1045695 0-2-.8954305-2-2zm8.2737653-7.67881344c-.41905501 1.23161053-1.2737653 2.17260392-1.2737653 3.67881344 0 1.2520077.81448503 1.5814378 1.84327853 1.7482346.47290978-.230098.78172147-.6267625.78172147-1.3732346 0-1.65517433-1.09143973-2.57392883-1.3512347-4.05381344z"></path></svg>