<svg height="16" viewBox="0 0 16 16" width="16" xmlns="http://www.w3.org/2000/svg"><path d="m7.44104795 14.1481034-3.0707458 1.7067109c-.55836459.3103373-1.26122393.1068063-1.56988028-.4545991-.12535816-.22801-.17083365-.4917747-.1291181-.7489044l.61397483-3.7844683c.05902785-.3638406-.05723713-.7342513-.31328931-.99811415l-2.64363088-2.72427235c-.44554558-.45913653-.43654397-1.19449331.02010566-1.64246532.17267851-.16939714.39377224-.28018638.63225821-.31682223l3.55405382-.54596833c.38081744-.05850059.70757127-.30401869.87125726-.6546501l1.54815566-3.31630081c.27108304-.58068638.95902884-.8304727 1.53656996-.55791334.24404581.1151727.44034255.31253846.55489142.55791334l1.5481557 3.31630081c.163686.35063141.4904398.59614951.8712572.6546501l3.5540538.54596833c.630678.09688379 1.0638291.68947346.9674701 1.32358608-.0364374.23978476-.1466266.46208256-.3151062.63570147l-2.6436309 2.72427235c-.2560522.26386285-.3723171.63427355-.3132893.99811415l.6139748 3.7844683c.1027119.6331037-.3244758 1.2300535-.9541503 1.3333248-.255737.0419427-.518073-.0037805-.744848-.1298213l-3.07074583-1.7067109c-.34778146-.1932958-.76996206-.1932958-1.11774352 0z" fill-rule="evenodd"></path></svg>