<svg height="16" viewBox="0 0 16 16" width="16" xmlns="http://www.w3.org/2000/svg"><path d="m13.4864865 1c.4204225 0 .7777763.14714568 1.0720721.44144144.2942957.29429577.4414414.65164955.4414414 1.07207207v3.53153154c0 .39940139-.1051041.85660403-.3153153 1.37162162-.2102113.51501759-.462461.91966819-.7567568 1.21396396l-5.9279279 5.92792797c-.29429577.2942957-.65164955.4414414-1.07207207.4414414s-.77777631-.1471457-1.07207207-.4414414l-4.41441442-4.4144145c-.29429576-.29429572-.44144144-.65164951-.44144144-1.07207203s.14714568-.7777763.44144144-1.07207207l5.92792793-5.92792793c.29429577-.29429576.69369117-.54654549 1.1981982-.75675675.50450702-.21021127.96696486-.31531532 1.38738738-.31531532zm-1.9864865 5c.4166688 0 .7708319-.14583188 1.0625-.4375s.4375-.64583125.4375-1.0625-.1458319-.77083188-.4375-1.0625-.6458312-.4375-1.0625-.4375-.7708319.14583188-1.0625.4375-.4375.64583125-.4375 1.0625.1458319.77083188.4375 1.0625.6458312.4375 1.0625.4375z" fill-rule="evenodd"></path></svg>