<svg height="16" viewBox="0 0 16 16" width="16" xmlns="http://www.w3.org/2000/svg"><path d="m4 13.5574647v-7.11141648c0-.38358201.11030602-.75907299.31776824-1.08170991l3.15406115-4.90506911c.29370608-.4567599.89826098-.59564287 1.36186114-.31285716l.57070927.34811987c.35860216.21873929.54228152.6382674.45977401 1.05013497l-.6591687 3.40030392c-.10510687.54219092.24921977 1.06692945.79141068 1.17203632.02470451.0047891.04958091.00864399.07457621.01155643l4.4440838.51782313c.8520431.12172045 1.4849242.85143847 1.4849242 1.71213203v1.18262177c0 .21026995-.0331588.41922457-.0982547.61916452l-1.452177 4.4603185c-.2681027.8234694-1.0357309 1.3808355-1.9017454 1.3808355h-5.20857463c-.21387157 0-.42635876-.0343044-.62936501-.1016061l-1.33924827-.4439942c-.81826448-.2712751-1.37063499-1.0363343-1.37063499-1.898394zm-3-8.5574647h1c.55228475 0 1 .44771525 1 1v8c0 .5522847-.44771525 1-1 1h-1c-.55228475 0-1-.4477153-1-1v-8c0-.55228475.44771525-1 1-1z" fill-rule="evenodd"></path></svg>