<svg height="16" viewBox="0 0 16 16" width="16" xmlns="http://www.w3.org/2000/svg"><path d="m5 2v-1c0-.55228475.44771525-1 1-1h4c.5522847 0 1 .44771525 1 1v1h2c.5522847 0 1 .44771525 1 1s-.4477153 1-1 1h-10c-.55228475 0-1-.44771525-1-1s.44771525-1 1-1zm-2 3h10v9c0 1.1045695-.8954305 2-2 2h-6c-1.1045695 0-2-.8954305-2-2zm3.5-4c-.27614237 0-.5.22385763-.5.5v.5h4v-.5c0-.27614237-.22385763-.5-.5-.5zm3.5 6c-.55228475 0-1 .44771525-1 1v5c0 .5522847.44771525 1 1 1 .5522847 0 1-.4477153 1-1v-5c0-.55228475-.4477153-1-1-1zm-4 0c-.55228475 0-1 .44771525-1 1v5c0 .5522847.44771525 1 1 1s1-.4477153 1-1v-5c0-.55228475-.44771525-1-1-1z" fill-rule="evenodd"></path></svg>