<svg height="16" viewBox="0 0 16 16" width="16" xmlns="http://www.w3.org/2000/svg"><path d="m2 2h12c1.1045695 0 2 .8954305 2 2v8c0 1.1045695-.8954305 2-2 2h-12c-1.1045695 0-2-.8954305-2-2v-8c0-1.1045695.8954305-2 2-2zm4.76342431 3.07556698c-.07911358-.04903869-.17034504-.07502043-.26342431-.07502043-.27614237 0-.5.22385762-.5.5v4.99825675c0 .0930792.02598175.1843107.07502043.2634243.14548523.2347097.45369414.3070405.68840388.1615552l4.03181659-2.49912833c.0655986-.04066141.1208938-.09595663.1615552-.16155526.1454853-.23470973.0731545-.54291864-.1615552-.68840387z" fill-rule="evenodd"></path></svg>